<?xml version="1.0" encoding="UTF-8" standalone="no"?>
<svg
   viewBox="0 0 1000 1000"
   xml:space="preserve"
   style="fill-rule:evenodd;clip-rule:evenodd;stroke-linejoin:round;stroke-miterlimit:2"
   version="1.1"
   id="svg6"
   sodipodi:docname="logo.svg"
   inkscape:version="1.2.2 (b0a8486541, 2022-12-01)"
   xmlns:inkscape="http://www.inkscape.org/namespaces/inkscape"
   xmlns:sodipodi="http://sodipodi.sourceforge.net/DTD/sodipodi-0.dtd"
   xmlns="http://www.w3.org/2000/svg"
   xmlns:svg="http://www.w3.org/2000/svg"><defs
   id="defs10" /><sodipodi:namedview
   id="namedview8"
   pagecolor="#ffffff"
   bordercolor="#999999"
   borderopacity="1"
   inkscape:showpageshadow="0"
   inkscape:pageopacity="0"
   inkscape:pagecheckerboard="0"
   inkscape:deskcolor="#d1d1d1"
   showgrid="false"
   inkscape:zoom="0.44"
   inkscape:cx="543.18182"
   inkscape:cy="510.22727"
   inkscape:window-width="1920"
   inkscape:window-height="1040"
   inkscape:window-x="0"
   inkscape:window-y="40"
   inkscape:window-maximized="1"
   inkscape:current-layer="svg6" />
  <path
   d="M501 21c264.367 0 479 214.633 479 479 0 264.367-214.633 479-479 479-264.367 0-479-214.633-479-479C22 235.633 236.633 21 501 21Zm0 148c182.684 0 331 148.316 331 331S683.684 831 501 831 170 682.684 170 500s148.316-331 331-331Z"
   style="fill:#ea9a97;fill-opacity:1"
   id="path2" />
  <path
   d="M501 224c152.053 0 275.5 123.447 275.5 275.5S653.053 775 501 775 225.5 651.553 225.5 499.5 348.947 224 501 224Zm88.165 268.207c5.998 3.465 5.998 12.121 0 15.586l-149.663 86.463c-6 3.466-13.502-.864-13.502-7.793V413.537c0-6.929 7.502-11.259 13.502-7.793l149.663 86.463Z"
   style="fill:#ea9a97;fill-opacity:1"
   id="path4" />
</svg>
