<?xml version="1.0" encoding="UTF-8" standalone="no"?>
<!-- Created with Inkscape (http://www.inkscape.org/) -->

<svg
   version="1.1"
   id="svg281"
   width="128"
   height="128"
   viewBox="0 0 128 128"
   sodipodi:docname="NewJeansRabbit128.svg"
   inkscape:version="1.3 (0e150ed6c4, 2023-07-21)"
   xmlns:inkscape="http://www.inkscape.org/namespaces/inkscape"
   xmlns:sodipodi="http://sodipodi.sourceforge.net/DTD/sodipodi-0.dtd"
   xmlns="http://www.w3.org/2000/svg"
   xmlns:svg="http://www.w3.org/2000/svg">
  <defs
     id="defs285" />
  <sodipodi:namedview
     id="namedview283"
     pagecolor="#ffffff"
     bordercolor="#999999"
     borderopacity="1"
     inkscape:showpageshadow="0"
     inkscape:pageopacity="0"
     inkscape:pagecheckerboard="0"
     inkscape:deskcolor="#d1d1d1"
     showgrid="false"
     inkscape:zoom="4.7019248"
     inkscape:cx="64.335355"
     inkscape:cy="66.568483"
     inkscape:window-width="1920"
     inkscape:window-height="1040"
     inkscape:window-x="0"
     inkscape:window-y="40"
     inkscape:window-maximized="1"
     inkscape:current-layer="g287">
    <inkscape:grid
       id="grid58"
       units="px"
       originx="0"
       originy="0"
       spacingx="1"
       spacingy="1"
       empcolor="#0099e5"
       empopacity="0.30196078"
       color="#0099e5"
       opacity="0.14901961"
       empspacing="5"
       dotted="false"
       gridanglex="30"
       gridanglez="30"
       visible="false" />
  </sodipodi:namedview>
  <g
     inkscape:groupmode="layer"
     inkscape:label="Image"
     id="g287"
     transform="translate(-138.51822,-129.85254)">
    <path
       style="fill:#c4a7e7;fill-opacity:1;stroke-width:0.190885"
       d="m 201.01682,257.64203 c -1.2316,-0.23464 -2.27521,-0.70474 -2.81359,-1.26735 -0.80123,-0.83733 -1.74862,-2.77226 -1.95743,-3.99781 -0.72068,-4.23002 -1.23457,-5.95899 -1.85517,-6.24177 -0.2899,-0.13214 -2.27112,-0.20709 -5.47,-0.20709 -4.12831,0 -5.18185,0.0551 -5.95616,0.31169 -0.51741,0.17143 -1.02232,0.3862 -1.12206,0.47722 -0.0997,0.091 -0.30202,0.16551 -0.44953,0.16551 -0.14754,0 -0.65004,0.25771 -1.1167,0.57266 -0.46669,0.31497 -0.89536,0.57265 -0.95264,0.57265 -0.0574,0 -0.33968,0.16774 -0.62759,0.37273 -0.9753,0.69448 -3.4324,1.39296 -4.9873,1.41769 -1.23654,0.0197 -1.59879,-0.0555 -2.52958,-0.52489 -0.59752,-0.30134 -1.35318,-0.85177 -1.6793,-1.22319 -0.61105,-0.69595 -2.17014,-3.79656 -2.75682,-5.48256 -1.52316,-4.37736 -1.91173,-5.39705 -2.17954,-5.71978 -0.11395,-0.13733 -0.78469,-0.31092 -1.49039,-0.38567 -0.70569,-0.0746 -1.62965,-0.29293 -2.05323,-0.48491 -0.42359,-0.19198 -1.02487,-0.40892 -1.33619,-0.48212 -0.31132,-0.0732 -1.19983,-0.44157 -1.97449,-0.81862 -1.45037,-0.706 -2.14648,-1.44283 -2.41834,-2.55985 -0.0703,-0.28871 -0.18661,-0.52494 -0.25855,-0.52494 -0.0719,0 -0.2442,-0.53686 -0.38278,-1.19303 -0.23092,-1.09353 -0.50219,-2.19819 -0.9726,-3.96087 -0.44452,-1.66558 -0.95392,-4.01927 -0.95392,-4.40746 0,-0.23468 -0.25867,-0.82976 -0.57482,-1.32243 -0.51687,-0.80547 -0.57424,-1.04768 -0.56928,-2.40278 0.003,-0.82885 0.005,-1.89355 0.005,-2.36599 -2e-4,-0.55627 0.1331,-1.04124 0.37839,-1.37618 0.20834,-0.28446 0.37882,-0.76567 0.37882,-1.06935 0,-0.85418 0.7501,-1.80713 1.67647,-2.12983 0.44277,-0.15428 0.80503,-0.36334 0.80503,-0.46465 0,-0.10144 0.17306,-0.54174 0.38458,-0.97868 0.41213,-0.85134 1.00845,-1.23494 1.91973,-1.23494 0.41928,0 0.61268,-0.11646 0.73717,-0.44386 0.24322,-0.63973 1.02717,-1.08321 1.9148,-1.08321 0.42365,0 0.77085,-0.0643 0.77156,-0.14315 5.9e-4,-0.0787 0.30642,-0.35096 0.67934,-0.60494 0.50936,-0.34692 0.91318,-0.45644 1.62331,-0.44028 0.76513,0.0175 1.03419,-0.0673 1.41175,-0.44491 0.37138,-0.37139 0.66268,-0.46644 1.42952,-0.46644 0.90005,0 0.96311,-0.0313 0.96311,-0.47721 0,-0.55741 0.15052,-0.60543 0.48092,-0.15349 0.20345,0.27825 0.59427,0.32083 2.78345,0.30331 1.94392,-0.0157 2.68046,0.0487 3.11151,0.27166 0.46997,0.24303 0.72971,0.25513 1.54783,0.072 1.14703,-0.25669 1.49901,-0.16457 2.32225,0.60781 0.55248,0.51836 0.68424,0.55715 1.48441,0.43717 0.7123,-0.10689 1.00077,-0.0558 1.52767,0.26976 0.35726,0.2208 0.68111,0.4961 0.71967,0.61179 0.0387,0.11566 0.57893,0.27939 1.20082,0.36377 0.96612,0.13106 1.21606,0.25223 1.71733,0.83231 0.68091,0.78791 0.88044,0.81565 2.07292,0.28816 1.29392,-0.57236 1.19147,-0.95578 -0.4786,-1.79127 -0.749,-0.37471 -1.54357,-0.68093 -1.76567,-0.68045 -1.02199,0.002 -7.00455,-2.11316 -7.56204,-2.67378 -0.0524,-0.0528 -0.44599,-0.33357 -0.87444,-0.62398 -0.42845,-0.29042 -1.02433,-0.78406 -1.32418,-1.09705 -0.29987,-0.31299 -0.74387,-0.56906 -0.98669,-0.56906 -0.24283,0 -0.44151,-0.08 -0.44151,-0.17801 0,-0.33701 -0.74541,-0.41381 -1.27892,-0.13184 -0.29396,0.15538 -0.81895,0.54637 -1.16664,0.86883 -1.13387,1.05158 -1.10343,0.61618 0.0376,-0.53684 l 1.11139,-1.12309 -0.47336,-1.36658 c -0.26033,-0.75161 -0.51787,-1.4111 -0.57229,-1.46552 -0.0544,-0.0544 -0.45161,-0.10373 -0.88262,-0.10972 -0.98005,-0.0142 -1.02055,-0.2876 -0.0678,-0.45925 0.94275,-0.16987 1.19303,-0.39293 1.19303,-1.06313 0,-1.22857 1.01073,-2.76447 2.12214,-3.22484 0.45013,-0.18644 0.55024,-0.3432 0.55024,-0.86159 0,-0.34851 -0.0761,-0.68074 -0.16925,-0.73827 -0.0931,-0.0576 -0.22567,-0.4054 -0.29466,-0.77306 -0.0854,-0.45498 -0.29039,-0.75804 -0.642,-0.9489 -0.28414,-0.15429 -0.40922,-0.28387 -0.278,-0.28807 0.13779,-0.005 0.23861,-0.25694 0.23861,-0.59752 0,-0.4165 -0.16834,-0.73757 -0.57268,-1.09236 -0.62972,-0.5526 -0.7203,-0.79927 -0.29349,-0.79927 0.23079,0 0.2556,-0.22315 0.14314,-1.28847 -0.20961,-1.98613 -0.16128,-5.71261 0.0947,-7.30133 0.47545,-2.95113 2.08614,-6.85185 4.28689,-10.38197 1.33583,-2.14276 3.30659,-4.79727 4.34907,-5.85797 0.16272,-0.16557 0.6015,-0.638 0.97505,-1.04987 1.17786,-1.29865 4.82063,-4.28021 5.22943,-4.28021 0.0719,0 0.49802,-0.25256 0.94672,-0.56127 0.77757,-0.535 0.8265,-0.62613 1.04432,-1.94507 0.30906,-1.87145 2.02002,-5.38367 3.40583,-6.99142 0.33874,-0.393 0.87047,-1.10113 1.18163,-1.57356 0.53806,-0.81702 4.07173,-4.52451 5.27299,-5.53236 0.31066,-0.26069 0.98784,-0.75225 1.50482,-1.09242 0.51698,-0.34019 0.98941,-0.68525 1.04987,-0.76684 0.18988,-0.2563 1.32635,-1.00731 1.52431,-1.00731 0.10407,0 0.25781,-0.11475 0.34179,-0.25505 0.0839,-0.14031 0.83114,-0.6643 1.6604,-1.16452 2.96412,-1.78797 4.16976,-2.39361 6.41398,-3.22201 1.80053,-0.66463 2.18135,-0.76238 4.19945,-1.07784 0.57743,-0.0903 1.99476,-0.3355 3.14961,-0.54498 2.61937,-0.47514 8.26202,-0.73616 9.38386,-0.43406 0.73637,0.19827 0.80675,0.27651 1.00965,1.12227 0.269,1.12135 0.0209,2.18852 -1.11572,4.79784 -0.83241,1.91107 -0.89003,2.11454 -0.59887,2.11454 0.15838,0 1.98861,-0.82819 5.11278,-2.3136 0.44633,-0.2122 1.3912,-0.58816 2.09972,-0.83544 4.07867,-1.4235 4.81958,-1.67232 5.77402,-1.93914 0.99249,-0.27743 1.32547,-0.36161 3.29276,-0.83258 4.09236,-0.97967 8.70906,-1.48697 10.35551,-1.13793 2.02358,0.42901 3.14959,1.84733 3.14959,3.96716 0,0.95375 -0.13136,1.36857 -0.92258,2.91307 -0.84278,1.64519 -2.02267,3.78522 -2.7157,4.92565 -0.63542,1.04564 -2.08396,2.58369 -3.97855,4.22439 -0.66679,0.57744 -1.43765,1.29473 -1.71304,1.59401 -0.27537,0.29927 -0.71543,0.6593 -0.97791,0.80009 -0.26246,0.14079 -0.7194,0.4694 -1.01543,0.73024 -0.29601,0.26088 -1.02616,0.80275 -1.62251,1.20421 -0.59637,0.40145 -1.12726,0.77311 -1.17974,0.82589 -0.39461,0.39682 -1.97772,1.2807 -3.91315,2.1848 -1.25984,0.58851 -2.72012,1.27665 -3.24505,1.52921 -0.52493,0.25254 -1.21211,0.51522 -1.52706,0.58376 -0.31498,0.0686 -0.87775,0.2386 -1.25062,0.37795 -0.61224,0.2288 -4.89,1.3407 -7.0529,1.83323 -1.22536,0.27902 -2.29486,0.55144 -2.97224,0.75709 -0.32243,0.0979 -0.76251,0.17794 -0.978,0.17794 -0.21548,0 -1.06835,0.17047 -1.8953,0.37883 -0.82694,0.20837 -1.76121,0.38148 -2.07619,0.38469 -0.31494,0.003 -0.69809,0.0852 -0.85138,0.18217 -0.23855,0.15084 -0.22741,0.23303 0.0773,0.56974 0.19582,0.21636 0.43047,0.39342 0.52143,0.39342 0.16478,0 1.57951,0.8767 2.00171,1.24041 0.95599,0.82363 2.92763,2.88008 2.92763,3.0536 0,0.11834 0.15459,0.38176 0.34344,0.58527 0.32199,0.3469 1.46769,2.45583 1.91212,3.51965 0.31576,0.7559 0.57153,1.69826 0.9008,3.31909 0.16824,0.82812 0.46857,1.91839 0.6674,2.42281 0.401,1.01737 1.48095,2.53358 2.25029,3.15939 0.42181,0.34311 0.46164,0.45347 0.25402,0.70363 -0.30692,0.36981 -0.11315,0.75888 0.80366,1.61334 0.67837,0.63225 1.26721,2.11279 1.26721,3.18614 0,0.98956 -0.42696,2.25017 -0.79471,2.34633 -0.37812,0.0989 -0.46179,0.3531 -0.61227,1.86055 -0.12618,1.26474 -0.90195,3.5087 -1.57948,4.56912 -0.29971,0.46906 -0.75966,1.20763 -1.02212,1.64124 -0.80432,1.32881 -3.23711,3.6679 -4.67669,4.49657 -1.34953,0.77683 -3.82373,1.76313 -5.48432,2.1862 -1.55234,0.39549 -1.5544,0.6172 -0.0347,3.71387 1.31635,2.68228 4.02426,5.57023 7.57318,8.07674 0.91982,0.64965 1.73587,1.18254 1.81342,1.18423 0.0775,0.002 0.41139,0.23789 0.74188,0.52494 0.33048,0.28703 0.78945,0.65073 1.01995,0.8082 0.94268,0.64409 3.47846,3.45385 4.19886,4.65255 l 0.44437,0.73942 1.0591,-0.10924 c 0.75523,-0.078 1.23981,-0.0235 1.68906,0.18962 0.50792,0.24105 0.7869,0.25945 1.43998,0.095 1.77825,-0.4477 4.34929,0.82314 5.12632,2.53387 0.2058,0.45309 0.35372,1.22112 0.35616,1.84918 0.003,0.69324 0.10082,1.1544 0.27662,1.30031 0.44968,0.37318 0.8729,1.91181 0.8729,3.17338 0,1.06235 -0.0781,1.30198 -0.7546,2.31502 -0.41504,0.62151 -0.95711,1.23841 -1.20463,1.37087 -0.28691,0.15349 -0.52965,0.53866 -0.66978,1.06258 -0.23981,0.89659 -1.17931,2.23833 -1.98573,2.83589 -0.64675,0.47924 -2.24937,0.64266 -3.20604,0.32695 -0.57106,-0.18847 -0.93144,-0.19183 -1.66646,-0.0157 -0.91111,0.21857 -0.95738,0.26408 -1.62471,1.59868 -0.86214,1.72417 -3.44208,4.66772 -5.33561,6.08762 -1.81069,1.35776 -1.87134,1.38686 -3.8887,1.86648 -3.57976,0.85105 -4.05507,0.93373 -6.00579,1.04467 l -2.00422,0.11393 -0.76361,0.89762 c -0.41998,0.49367 -1.13726,1.2864 -1.5939,1.76159 -0.45666,0.4752 -1.07025,1.20759 -1.36351,1.62753 -0.55323,0.79222 -0.8496,1.07536 -2.29263,2.19025 -0.47209,0.36476 -0.9013,0.72011 -0.9538,0.7897 -0.10563,0.14016 -1.02521,0.70151 -2.19518,1.34024 -0.76181,0.41591 -2.80184,0.63828 -3.91313,0.42656 z m 3.81768,-1.25405 c 0.57743,-0.27077 1.29938,-0.69494 1.60431,-0.94261 1.32336,-1.07484 3.3587,-2.91347 3.3587,-3.03409 0,-0.0723 0.62276,-0.82894 1.38391,-1.68136 0.76115,-0.85243 1.68457,-1.90378 2.05201,-2.33637 1.33629,-1.57312 2.41059,-2.65642 2.63441,-2.65642 0.38755,0 0.24963,0.44672 -0.34684,1.12346 -0.31327,0.35541 -0.56959,0.68939 -0.56959,0.74214 0,0.14816 2.75436,-0.11457 4.77212,-0.45503 2.0301,-0.34259 4.22849,-1.15283 5.52894,-2.03771 1.66687,-1.13423 4.56143,-4.47093 5.50005,-6.34017 0.31146,-0.62028 1.34127,-3.69811 1.78828,-5.34478 0.33229,-1.22401 0.41346,-2.04196 0.40895,-4.12154 -0.006,-2.64743 -0.0842,-3.08665 -0.94936,-5.30608 -0.93903,-2.4092 -2.85934,-5.36705 -4.38681,-6.75701 -1.73121,-1.57539 -2.13981,-1.90321 -3.08767,-2.47725 -0.56081,-0.33963 -1.42124,-0.92578 -1.91206,-1.30257 -0.49086,-0.3768 -0.99718,-0.72039 -1.12518,-0.76354 -0.25,-0.0842 -2.30321,-1.8579 -3.09639,-2.67474 -2.06787,-2.12956 -3.6673,-4.68529 -4.46762,-7.13887 -0.49566,-1.51948 -0.43962,-1.71508 0.59726,-2.08514 0.49868,-0.178 1.03555,-0.39114 1.19301,-0.47366 0.1575,-0.0826 0.7588,-0.2621 1.33622,-0.39907 0.97832,-0.23207 3.24075,-1.2048 4.09694,-1.76151 0.20607,-0.13402 0.76442,-0.5992 1.24076,-1.03382 0.47632,-0.43459 1.15367,-1.02916 1.5052,-1.32124 0.59184,-0.49172 2.17805,-2.70492 2.79836,-3.90447 0.73066,-1.41298 1.38464,-4.07025 1.47904,-6.00984 0.0447,-0.91957 0.0656,-0.95218 0.57139,-0.89304 0.48299,0.0564 0.52493,0.009 0.52493,-0.59638 0,-1.09134 -0.5165,-2.21332 -1.52882,-3.32094 -0.52783,-0.57752 -1.17997,-1.51572 -1.44922,-2.08489 -0.26925,-0.56915 -0.6928,-1.27638 -0.94123,-1.57159 -0.6832,-0.81196 -1.16151,-2.20841 -1.60516,-4.6865 -0.56323,-3.14581 -1.95188,-6.00182 -3.96426,-8.15322 -1.64893,-1.76285 -4.83743,-3.66539 -6.4502,-3.84876 -0.57087,-0.065 -0.56996,-0.0664 0.29444,-0.47421 0.4769,-0.22499 1.24998,-0.46463 1.71797,-0.53254 0.46798,-0.0679 1.70986,-0.31956 2.75973,-0.55926 1.04986,-0.2397 2.42423,-0.53876 3.05414,-0.6646 0.62993,-0.12588 1.57481,-0.34833 2.09973,-0.49446 0.52494,-0.14612 1.34099,-0.35313 1.81343,-0.45999 4.94697,-1.11912 7.47462,-1.94328 10.68954,-3.48546 4.2739,-2.05018 5.0571,-2.47465 6.37196,-3.45349 0.74739,-0.55641 1.65953,-1.21937 2.02699,-1.47323 0.36744,-0.25389 1.3037,-1.06478 2.08054,-1.802 4.9,-4.65004 6.32089,-6.38725 7.18534,-8.78491 0.18926,-0.52493 0.40528,-1.04032 0.48007,-1.14531 0.0748,-0.105 0.19347,-0.49152 0.26372,-0.85898 0.0703,-0.36746 0.22228,-1.06452 0.33784,-1.54907 0.18674,-0.78284 0.16129,-0.98184 -0.22837,-1.78681 -0.63285,-1.30727 -1.22649,-1.51206 -4.01083,-1.3837 -3.7269,0.17185 -10.25439,1.6353 -14.60269,3.2739 -0.73492,0.27695 -1.72274,0.63469 -2.19518,0.79497 -0.86849,0.29465 -1.68227,0.66507 -4.95432,2.25519 -0.99263,0.48237 -1.91603,0.87702 -2.05204,0.87702 -0.13591,0 -0.24781,0.0645 -0.24848,0.14314 -0.001,0.15989 -1.08037,0.81126 -1.34388,0.81126 -0.0929,0 -0.89365,0.47243 -1.77948,1.04986 -0.88586,0.57743 -1.66398,1.04988 -1.72915,1.04988 -0.0994,0 -1.64382,0.98912 -2.30898,1.4787 -0.10752,0.079 -0.62285,0.43999 -1.14531,0.802 -4.78342,3.31438 -9.53867,7.54362 -11.08207,9.85618 -1.15967,1.7376 -1.8599,2.07154 -1.05187,0.50163 0.94089,-1.82795 5.93828,-7.28204 7.84353,-8.56028 0.36746,-0.24654 1.2694,-0.88122 2.0043,-1.41041 1.77589,-1.27881 6.79662,-4.64042 7.15818,-4.79276 0.44933,-0.1893 0.83453,-0.71643 1.72525,-2.36086 2.34572,-4.33066 2.79371,-5.77522 2.02838,-6.54054 -0.29299,-0.29301 -0.71149,-0.3256 -3.61726,-0.28195 -1.80729,0.0272 -3.9302,0.14016 -4.7176,0.25126 -1.85606,0.26171 -5.8245,1.05411 -6.68097,1.334 -1.23841,0.4047 -3.90777,1.57186 -4.62518,2.02231 -0.3916,0.24589 -0.79029,0.44709 -0.88598,0.44709 -0.21828,0 -4.53471,2.88483 -5.94207,3.97133 -0.57735,0.44573 -1.26448,0.97572 -1.52694,1.17776 -1.35184,1.04067 -4.92523,4.81143 -6.39466,6.74784 -1.97015,2.5963 -3.97016,6.65196 -3.66827,7.43865 0.0916,0.23844 0.2568,0.25805 0.91974,0.10908 1.44807,-0.32536 1.77948,0.10955 0.50071,0.65717 -2.48685,1.06486 -4.39302,2.10322 -5.084,2.76948 -0.14802,0.14267 -0.57748,0.45735 -0.95443,0.69923 -0.37693,0.24189 -1.32958,1.07183 -2.11698,1.84431 -1.43363,1.40651 -1.62377,1.62059 -2.85833,3.21851 -0.36475,0.47209 -0.71171,0.9013 -0.77102,0.95379 -0.19979,0.17683 -2.28808,3.23164 -2.28808,3.34709 0,0.0629 -0.20508,0.38772 -0.45572,0.72195 -0.41131,0.54842 -1.45313,2.64749 -1.45313,2.92776 0,0.0624 -0.20696,0.59683 -0.45989,1.18738 -1.53451,3.5828 -2.28263,8.2957 -1.84102,11.59785 0.29802,2.22853 0.46236,2.60819 1.29152,2.98402 0.8032,0.36405 1.00939,0.29395 1.00939,-0.34323 0,-1.35058 1.65837,-3.14345 2.90761,-3.14345 1.7365,0 3.80542,1.93659 4.24529,3.97377 0.17424,0.80702 0.43109,0.89577 1.52126,0.52563 0.4859,-0.16496 1.24892,-0.29993 1.69564,-0.29993 0.82865,0 2.9794,0.48449 3.22133,0.72566 0.0736,0.0734 -1.00017,0.13325 -2.38606,0.13325 -2.42966,0 -2.55307,0.0197 -3.45029,0.54694 -2.24398,1.31895 -3.36442,2.96941 -3.36442,4.95596 0,1.38987 0.4808,2.26684 1.53871,2.80654 1.41046,0.71957 2.45422,0.46328 3.73809,-0.91781 l 0.60011,-0.64558 0.83152,0.54012 c 0.78846,0.51217 0.94027,0.53956 2.93127,0.52898 1.70889,-0.009 2.25961,-0.0851 2.95869,-0.40858 0.85072,-0.39361 1.71798,-1.08201 1.71798,-1.36368 0,-0.0803 -0.30798,-0.44202 -0.68438,-0.80383 -0.75295,-0.7237 -1.35131,-1.70767 -1.03849,-1.70767 0.10767,0 0.19578,0.0756 0.19578,0.16821 0,0.30144 1.34692,1.20467 2.35533,1.57947 1.48036,0.55023 3.47292,0.93197 4.17726,0.8003 0.5274,-0.0986 0.5866,-0.0755 0.37711,0.14691 -0.18344,0.19481 -0.82217,0.26385 -2.44066,0.26385 -1.40603,0 -2.24105,0.0764 -2.32847,0.21324 -0.16272,0.25462 -2.01478,1.42547 -2.77181,1.75232 -0.29468,0.12729 -1.02115,0.75556 -1.61433,1.39628 l -1.07853,1.16494 -0.93524,-0.0899 c -0.51437,-0.0494 -0.9905,-0.17588 -1.05805,-0.281 -0.0675,-0.10517 -0.61744,-0.46905 -1.22195,-0.80872 -0.79226,-0.44512 -1.29854,-0.60387 -1.81341,-0.5686 -2.2545,0.15444 -3.04563,0.0504 -3.76013,-0.49457 -1.14917,-0.87651 -1.49153,-1.77266 -1.41207,-3.69613 l 0.0675,-1.63584 -1.18608,-0.21382 c -1.50243,-0.27085 -1.9813,-0.59289 -2.23704,-1.50431 -0.23491,-0.83724 -0.78545,-1.30712 -1.04471,-0.8916 -0.17818,0.2856 -0.0669,0.94332 0.22214,1.31296 0.10173,0.13012 0.12775,0.54149 0.0577,0.91426 -0.0986,0.52552 -0.3392,0.83009 -1.07135,1.35608 -0.80056,0.57514 -0.99023,0.83666 -1.24678,1.71919 -0.32795,1.12809 -0.18111,1.59596 0.50091,1.59596 0.47785,0 0.94666,0.19916 0.94666,0.40218 0,0.0937 -0.38654,0.17047 -0.85898,0.17047 -0.76374,0 -0.85891,0.0474 -0.85826,0.42948 3.7e-4,0.23622 0.17196,0.71034 0.38125,1.05363 0.32614,0.53492 0.45566,0.6063 0.90598,0.49928 0.289,-0.0686 0.67258,-0.25255 0.8524,-0.40866 0.3963,-0.34409 0.95343,-0.18112 0.79472,0.23243 -0.062,0.16146 -0.22177,0.29356 -0.35516,0.29356 -0.13342,0 -0.34304,0.12117 -0.46587,0.26909 -0.38444,0.46322 2.30673,2.8317 4.26152,3.75058 0.83563,0.3928 5.36002,1.89776 5.70524,1.89776 0.33892,0 2.66436,0.97169 3.52405,1.47251 0.73811,0.43001 0.81126,0.54072 0.81126,1.22793 0,0.68815 -0.65319,2.26654 -1.00215,2.42164 -0.19889,0.0883 -0.18042,1.51335 0.0212,1.63797 0.0904,0.0558 0.16677,1.18528 0.1697,2.50976 0.003,1.35953 0.0893,2.49212 0.19814,2.60098 0.2131,0.21311 3.7,-0.0947 5.19431,-0.45848 1.22764,-0.29889 3.85597,-1.53945 5.18816,-2.44879 1.92685,-1.31528 4.13873,-3.33312 4.96056,-4.52542 0.53768,-0.78008 1.30438,-1.11286 1.30438,-0.56616 0,0.45485 -1.86478,2.72608 -2.98851,3.63992 -0.61355,0.49892 -1.24436,1.01213 -1.40185,1.1405 -0.6952,0.56659 -3.7888,2.56395 -4.44558,2.87023 -1.48898,0.69438 -3.33538,1.07418 -7.10295,1.461 -2.70075,0.27728 -4.34358,0.65423 -5.53566,1.27014 -1.08406,0.56012 -2.00429,1.61909 -2.00429,2.30646 0,0.44965 0.0319,0.46023 1.00215,0.33307 0.93256,-0.12227 0.97564,-0.11065 0.62037,0.1669 -0.20997,0.16402 -0.51061,0.30129 -0.6681,0.30502 -0.15749,0.003 -0.5655,0.17701 -0.90671,0.38504 -0.55784,0.34013 -0.62037,0.46841 -0.62037,1.27272 0,1.30752 0.31861,1.57231 1.77789,1.47756 l 1.18082,-0.0767 -1.09757,0.42873 c -0.8879,0.34682 -1.0976,0.5115 -1.0976,0.862 0,0.42592 0.29226,1.07262 0.6681,1.47839 0.39846,0.4302 2.1324,1.09637 3.27477,1.25816 1.28575,0.18208 6.57994,-0.0571 8.17831,-0.36966 0.52495,-0.10268 1.59866,-0.28926 2.38609,-0.41476 2.24612,-0.358 3.78683,-0.99108 8.38594,-3.44571 0.75685,-0.40392 1.85871,-1.27764 2.87265,-2.27778 2.53796,-2.50353 3.2837,-3.41822 5.17347,-6.34564 0.56273,-0.87173 0.82243,-0.91983 0.6467,-0.11975 -0.13011,0.59249 -0.12604,0.59634 0.50978,0.47412 1.95022,-0.37489 3.31904,-0.33752 5.27986,0.1441 1.63436,0.40145 2.18248,0.63707 3.24505,1.39496 2.43804,1.73891 4.24266,3.59837 3.95071,4.07074 -0.23443,0.37931 -0.68896,0.17667 -1.07633,-0.47987 -0.54705,-0.92715 -2.6096,-2.59424 -3.76281,-3.04126 -0.52666,-0.20416 -0.99522,-0.51523 -1.04125,-0.69126 -0.12901,-0.49327 -2.75097,-1.0151 -4.45418,-0.88648 -1.76508,0.13325 -3.47213,0.67085 -3.73798,1.17706 -0.19853,0.37799 -0.83841,1.23578 -1.35897,1.82175 -0.13985,0.15746 -0.59946,0.75877 -1.02124,1.33618 -0.63491,0.86924 -1.92268,2.16217 -2.83256,2.8439 -1.36012,1.0191 -2.0914,1.47581 -3.09595,1.93348 -1.29203,0.58867 -1.51779,0.91224 -1.66728,2.38963 -0.11302,1.11752 0.2394,1.41473 1.15821,0.97659 0.771,-0.36767 2.24285,-0.40243 2.967,-0.0701 1.23845,0.56838 2.33352,2.0904 2.9384,4.08398 0.40028,1.31925 0.3527,4.51197 -0.11661,7.83 -0.21967,1.5528 -0.4287,2.85336 -0.46451,2.89011 -0.0358,0.0368 -0.1568,0.0111 -0.26872,-0.059 -0.28381,-0.17542 -0.25758,-1.11015 0.11959,-4.2574 0.27611,-2.30435 0.29109,-2.99331 0.0975,-4.4858 -0.12572,-0.96982 -0.34353,-2.08867 -0.48385,-2.48632 -0.40193,-1.13892 -1.40449,-2.42129 -2.12995,-2.7244 -2.01899,-0.84358 -3.48402,0.43615 -3.6837,3.21772 -0.0761,1.06097 -0.14926,1.28675 -0.40087,1.2389 -0.45547,-0.0867 -0.51763,-2.03304 -0.0998,-3.127 0.307,-0.80388 0.306,-0.86574 -0.0197,-1.22555 -0.6929,-0.76567 -2.77462,-0.31776 -3.56184,0.76637 -0.53448,0.73606 -0.64939,2.09703 -0.24837,2.94208 0.38145,0.80387 0.19098,1.22617 -0.36853,0.81706 -0.19939,-0.14581 -0.43702,-0.71976 -0.56734,-1.37037 -0.12337,-0.61573 -0.32259,-1.15228 -0.44275,-1.19234 -0.12021,-0.0401 -0.50449,0.18265 -0.85402,0.49488 -0.61671,0.55091 -0.63744,0.61771 -0.69932,2.25377 -0.0426,1.12861 0.0402,2.09625 0.25047,2.92679 0.17286,0.68241 0.38461,1.58435 0.47057,2.00429 0.18347,0.89602 1.10489,4.27607 1.79527,6.58554 0.26677,0.89237 0.5745,2.1379 0.68386,2.76783 0.58978,3.39728 1.00716,4.56047 2.0624,5.74762 0.46594,0.52422 1.32355,0.91694 2.81837,1.29064 0.81756,0.20438 2.33159,-0.0183 3.3405,-0.49143 z m -5.34479,-4.49204 c -0.81869,-0.31526 -1.28688,-1.47714 -1.80065,-4.46876 -0.15586,-0.90778 -0.46213,-2.3251 -0.68051,-3.14963 -0.60634,-2.28925 -0.67749,-3.64937 -0.23322,-4.45786 0.58987,-1.07346 1.42455,-1.52708 2.80983,-1.52708 1.92872,0 2.99124,0.94817 3.44761,3.07658 0.33941,1.58286 0.33545,3.75949 -0.0111,6.36707 -0.30659,2.30408 -0.85407,3.66391 -1.634,4.05865 -0.48256,0.24424 -1.39888,0.29302 -1.89751,0.10102 z m -16.32066,-58.32555 c -2.17614,-0.87854 -2.32724,-2.16508 -0.35362,-3.01107 1.51487,-0.64936 2.95805,-0.46151 3.32868,0.43326 0.20355,0.49139 0.18825,0.66899 -0.10437,1.21238 -0.72027,1.33748 -1.7393,1.82218 -2.87066,1.36543 z m 18.42041,-1.95195 c 0,-0.81973 4.016,-2.18449 7.26154,-2.46767 1.3273,-0.11582 3.61891,0.053 3.61891,0.26654 0,0.0703 -1.22406,0.22774 -2.72012,0.34994 -2.67693,0.21863 -4.37714,0.60184 -6.29921,1.41973 -0.49868,0.2122 -0.90669,0.46115 -0.90669,0.5532 0,0.0922 -0.21477,0.1674 -0.47721,0.1674 -0.29899,0 -0.47722,-0.10801 -0.47722,-0.28914 z m -1.78367,-1.89738 c -0.0672,-0.17506 0.1898,-0.50831 0.69539,-0.90178 0.44108,-0.34326 0.8449,-0.67921 0.89739,-0.74656 0.10216,-0.13105 1.03451,-0.65246 2.57695,-1.44108 0.52493,-0.26839 1.10358,-0.56547 1.28589,-0.66018 0.18229,-0.0947 0.50441,-0.17221 0.7158,-0.17221 0.21141,0 0.38437,-0.0701 0.38437,-0.15601 0,-0.0858 0.62277,-0.30164 1.38392,-0.47967 2.6068,-0.60967 2.74289,-0.30064 0.23861,0.54181 -2.55434,0.85931 -6.29453,2.85698 -7.37847,3.94092 -0.42452,0.42452 -0.65727,0.44626 -0.79985,0.0746 z m -8.21738,-0.59693 c -0.0638,-0.16607 -0.11583,-1.22312 -0.11583,-2.349 0,-2.54311 0.44737,-4.06395 1.50948,-5.13156 1.89676,-1.90655 4.26912,-2.09598 6.18829,-0.49414 0.69338,0.57871 0.85987,0.5677 1.76476,-0.11692 1.28804,-0.97461 1.43748,-0.64491 0.27499,0.60676 -1.24835,1.34412 -0.84847,1.90143 0.85393,1.19014 0.39162,-0.16362 0.74932,-0.26021 0.79491,-0.21463 0.0882,0.088 -0.79085,0.85031 -1.37986,1.1965 -0.2406,0.14142 -0.36687,0.46569 -0.39797,1.02198 -0.0546,0.97666 -0.14801,1.05986 -2.58841,2.30674 -2.0102,1.02709 -2.79892,1.3433 -4.7748,1.9144 -1.55905,0.45063 -1.97802,0.46436 -2.12946,0.0698 z m 3.95765,-2.32273 c 0.60524,-1.21112 0.73668,-1.8316 0.51278,-2.42054 -0.23551,-0.61939 -0.76082,-0.63108 -1.32601,-0.0296 -0.37463,0.39879 -0.50846,0.43471 -0.99169,0.26628 -0.6786,-0.23657 -1.12327,0.0517 -1.12327,0.72838 0,0.53351 1.6697,2.36205 2.15687,2.36205 0.18876,0 0.50253,-0.36885 0.77132,-0.90669 z m 3.99138,-0.88358 c 0.39371,-0.18004 0.71583,-0.44829 0.71583,-0.59605 0,-0.49916 -0.9123,-2.78639 -1.26829,-3.17975 -0.6673,-0.73735 -2.29841,-1.388 -2.76176,-1.10164 -0.20455,0.1265 -0.0879,0.34583 0.52206,0.98149 0.43203,0.45027 0.88266,1.11065 1.00143,1.46751 0.26943,0.8096 0.28783,0.70093 -0.195,1.15076 l -0.41093,0.38283 0.50979,0.19384 c 0.28041,0.10658 0.59401,0.41529 0.69691,0.68594 0.10299,0.27067 0.25168,0.45845 0.33063,0.41729 0.0789,-0.0412 0.46563,-0.22215 0.85933,-0.40222 z m -25.24452,-8.78469 c 0,-0.68725 1.26547,-1.64166 2.1767,-1.64166 0.72099,0 1.4501,0.39931 1.4501,0.79417 0,0.41202 -0.0639,0.42177 -0.86432,0.1323 -0.756,-0.27336 -1.41893,-0.11425 -2.17513,0.52206 -0.4533,0.38143 -0.58735,0.42549 -0.58735,0.19311 z m 17.90238,-2.5316 c 0.31002,-1.62186 2.5776,-2.48697 4.32922,-1.65167 0.98102,0.46781 0.8291,0.64305 -0.44222,0.51015 -1.41793,-0.14815 -2.3222,0.14457 -3.06729,0.99323 -0.69141,0.78749 -0.95088,0.83443 -0.81971,0.14832 z m 19.67988,-16.86312 c 0.25035,-0.21357 1.32408,-0.8642 2.38607,-1.44583 1.062,-0.5816 2.05977,-1.14075 2.21723,-1.24254 0.15748,-0.10186 0.53428,-0.33294 0.83735,-0.51367 1.14531,-0.68299 4.17895,-2.75841 4.75227,-3.25124 1.30268,-1.11974 2.59709,-2.28968 4.15189,-3.75268 1.95852,-1.84288 3.72416,-3.37758 4.16027,-3.61614 0.17554,-0.0961 0.3621,-0.22509 0.41462,-0.28682 0.44243,-0.5203 5.13775,-3.64264 5.47775,-3.64264 0.0577,0 0.71715,-0.36905 1.46535,-0.82015 4.41487,-2.66169 9.79978,-4.48213 12.02398,-4.06488 2.06124,0.3867 1.02374,3.39921 -2.33061,6.76719 -2.34066,2.35015 -5.0322,4.69135 -6.42414,5.58795 -0.41996,0.27049 -1.32189,0.85616 -2.00429,1.30147 -1.21024,0.78972 -5.43634,2.91561 -7.73085,3.88892 -2.25136,0.95495 -5.99793,2.05317 -8.87616,2.60178 -0.47244,0.0901 -1.71795,0.38423 -2.76782,0.65377 -1.04986,0.26952 -2.061,0.49229 -2.24693,0.49506 -0.18596,0.003 -1.34558,0.33952 -2.57695,0.7484 -1.23137,0.40885 -2.49656,0.79672 -2.81153,0.86189 l -0.57264,0.11849 z m -34.06036,90.16876 c 0.53015,-0.26621 1.43634,-0.8032 2.01377,-1.19333 2.22652,-1.50431 2.4534,-1.54937 7.80267,-1.54937 2.62528,0 4.82049,-0.0764 4.87825,-0.17001 0.13593,-0.21988 -0.547,-0.66003 -1.51416,-0.9759 -1.22151,-0.39889 -3.92388,-2.17545 -4.98758,-3.2788 -1.93081,-2.0028 -3.16096,-4.24131 -3.42512,-6.23273 -0.18808,-1.41775 -0.26738,-1.47296 -1.34391,-0.93589 -0.51312,0.25601 -1.53426,0.68492 -2.26915,0.95316 -0.7349,0.26824 -1.75523,0.64044 -2.2674,0.8271 l -0.9312,0.3394 0.12587,1.50967 c 0.0986,1.18221 0.073,1.49209 -0.11771,1.42848 -0.13404,-0.0446 -0.35558,-0.58577 -0.49239,-1.20246 -0.34853,-1.57101 -0.41741,-1.6262 -1.66675,-1.33578 -1.68272,0.39116 -1.75737,0.57023 -1.10345,2.64722 0.38422,1.22033 0.43913,4.65429 0.0851,5.32207 -0.57237,1.07967 -2.02115,1.22276 -2.96864,0.2932 -0.86525,-0.8489 -2.10254,-3.78987 -2.77673,-6.60018 -0.2048,-0.85371 -0.29976,-0.98748 -0.70105,-0.98748 -0.60044,0 -0.74271,0.39895 -0.38731,1.08617 0.15585,0.30141 0.49963,1.27553 0.76394,2.1647 0.84093,2.82897 2.38669,6.41542 3.22908,7.49214 0.71387,0.91246 1.4852,1.31203 2.81396,1.45773 1.30489,0.14314 3.88377,-0.37816 5.23988,-1.05911 z m 16.27578,-4.3175 c -0.0545,-0.23621 -0.23712,-0.90192 -0.40613,-1.47937 -0.169,-0.57743 -0.52577,-2.08064 -0.79287,-3.34048 -0.55295,-2.6083 -0.50832,-3.95893 0.17414,-5.26817 0.38474,-0.73812 0.6826,-0.96296 2.23506,-1.68718 0.26825,-0.1251 0.58348,-0.48119 0.70049,-0.79118 0.23256,-0.61615 1.01363,-1.03694 2.61895,-1.41102 0.78514,-0.18294 0.9675,-0.30809 1.08406,-0.74399 0.1557,-0.58215 -0.25658,-0.91781 -0.64735,-0.52703 -0.11897,0.11897 -0.34373,0.21621 -0.49956,0.21621 -0.15585,0 -0.63258,0.16815 -1.05942,0.37362 -1.38611,0.66731 -7.91739,1.71492 -10.74067,1.72283 -1.09688,0.003 -1.27709,0.0684 -2.45213,0.88986 -1.36722,0.95576 -1.30183,0.79372 -0.95166,2.35849 0.83211,3.718 2.50973,6.12286 5.68292,8.14649 1.20462,0.76823 3.97821,1.94869 4.60583,1.96029 0.4714,0.009 0.5335,-0.0493 0.44834,-0.41937 z m 43.54464,-6.96215 c 0.81114,-0.61011 1.36436,-1.51591 1.37303,-2.24806 0.008,-0.67558 0.26962,-1.04074 1.02564,-1.43162 0.88285,-0.45643 1.51177,-1.58231 1.60518,-2.87359 0.10861,-1.50136 -0.0308,-1.94847 -0.8474,-2.71893 -0.67235,-0.63431 -0.68477,-0.67126 -0.45748,-1.3599 0.34672,-1.05061 0.11001,-1.88735 -0.76959,-2.7209 -1.25769,-1.19177 -3.42427,-1.80256 -3.98735,-1.12408 -0.19604,0.23622 -0.34599,0.22309 -1.08906,-0.0954 -0.91562,-0.39248 -1.88216,-0.48377 -2.06085,-0.19465 -0.0593,0.0961 0.2362,1.2079 0.65685,2.47068 0.70149,2.10586 0.7648,2.46485 0.7648,4.33516 0,2.07613 -0.43316,5.43052 -0.78281,6.0619 -0.10626,0.19175 -0.24457,0.78364 -0.30754,1.3153 l -0.11442,0.96668 0.65014,-0.11912 c 0.38919,-0.0714 0.95666,-0.008 1.41369,0.16008 0.98262,0.35941 2.10166,0.19754 2.92726,-0.42346 z M 172.4795,235.5319 c 3.28952,-0.54444 7.59868,-1.96836 8.9716,-2.9646 0.41994,-0.30471 1.17144,-0.79474 1.67002,-1.0889 0.49857,-0.29416 0.8781,-0.62075 0.8434,-0.72575 -0.10362,-0.31338 -1.07033,-0.58123 -1.35141,-0.37442 -1.06112,0.78069 -1.38457,0.92866 -1.99982,0.91472 -0.37909,-0.008 -0.9255,-0.0792 -1.21421,-0.15704 -0.48591,-0.13088 -0.52493,-0.0997 -0.52493,0.42122 0,0.7905 -0.78024,1.22573 -1.32066,0.73665 -0.4781,-0.43267 -1.12114,-0.23868 -1.27779,0.38549 -0.0648,0.25822 -0.28787,0.5605 -0.49568,0.67173 -0.30267,0.16198 -0.46722,0.11818 -0.82732,-0.22009 -0.47573,-0.44694 -1.04156,-0.39774 -1.04156,0.0906 0,0.64138 -1.26298,0.87002 -2.44496,0.44262 -0.60689,-0.21945 -0.68104,-0.20444 -0.94353,0.19089 -0.33207,0.50012 -1.21174,0.57985 -1.57453,0.14265 -0.30508,-0.3676 -0.76354,-0.36976 -0.76354,-0.003 0,0.49953 -0.92543,0.57409 -1.5347,0.12369 -0.68808,-0.50873 -0.89795,-0.50894 -1.30899,-9.9e-4 -0.42218,0.52139 -1.38189,0.35208 -1.82334,-0.32164 -0.36951,-0.56393 -0.78836,-0.60172 -0.92391,-0.0833 -0.12401,0.47429 -1.14466,0.52948 -1.51198,0.0817 -0.68523,-0.83524 -0.92166,-0.98532 -1.72568,-1.09553 -0.47936,-0.0657 -1.48073,-0.41593 -2.22525,-0.77824 -1.17395,-0.57132 -1.35365,-0.61395 -1.35365,-0.32101 0,0.96212 2.01732,2.64349 3.70021,3.08402 0.32709,0.0857 1.07801,0.32911 1.66873,0.54108 0.59072,0.212 1.75033,0.46868 2.57694,0.5704 1.83852,0.22628 6.68219,0.0812 8.75654,-0.26195 z m -6.79056,-3.10901 c -0.008,-0.18372 -0.17323,-0.67764 -0.36763,-1.09758 -0.32045,-0.69227 -0.35476,-0.71676 -0.3676,-0.26247 -0.0245,0.86505 0.21384,1.69411 0.48691,1.69411 0.1444,0 0.25609,-0.15036 0.24832,-0.33406 z m -5.30143,-1.02051 c -0.10342,-1.01344 -0.31426,-1.23659 -1.49983,-1.58798 -0.99175,-0.29395 -2.43061,-0.79376 -3.34922,-1.16335 -0.28146,-0.11333 -0.33403,-0.0254 -0.33403,0.55827 0,0.63738 0.0919,0.75198 1.14939,1.43558 0.63218,0.40858 1.6415,0.88846 2.24291,1.06638 0.60142,0.17791 1.17937,0.34998 1.28436,0.38235 0.42078,0.12977 0.56953,-0.0733 0.50642,-0.69125 z m 14.09418,0.16152 c -0.005,-0.90683 -0.24883,-1.86112 -0.47663,-1.86112 -0.16879,0 -0.21262,0.26348 -0.15084,0.90673 0.0479,0.49867 0.12055,1.01406 0.16145,1.1453 0.12602,0.40394 0.46828,0.26373 0.46605,-0.19091 z m 2.17217,-0.85153 c -0.0142,-0.31476 -0.18563,-0.81871 -0.38179,-1.11992 l -0.35665,-0.54765 -0.057,0.67383 c -0.07,0.82641 0.26111,1.76293 0.58314,1.64958 0.13059,-0.046 0.22612,-0.34112 0.21232,-0.65584 z m 2.22029,-1.58224 c 0,-0.72112 -0.07,-0.95441 -0.28632,-0.95441 -0.15748,0 -0.28633,0.15897 -0.28633,0.35327 0,0.38653 0.37267,1.55558 0.49589,1.55558 0.0422,0 0.0767,-0.42951 0.0767,-0.95444 z m -15.84632,0.2386 c -0.008,-0.38789 -0.55564,-1.66552 -0.74062,-1.72718 -0.30691,-0.10237 -0.25839,0.42169 0.1108,1.19578 0.2897,0.60751 0.63729,0.90076 0.62988,0.5314 z m 3.45271,-1.44636 c -0.40502,-0.40502 -0.56832,0.13797 -0.24843,0.826 l 0.31058,0.66808 0.0713,-0.64464 c 0.0393,-0.35456 -0.0209,-0.7368 -0.13341,-0.84944 z m 4.64496,0.47396 c -0.0189,-0.88071 -0.27482,-1.18759 -0.86232,-1.03394 -0.2617,0.0685 -0.36062,0.26715 -0.36062,0.72452 0,0.97981 0.17473,1.26228 0.74021,1.19672 0.45767,-0.0531 0.49903,-0.12902 0.48273,-0.8873 z m -11.45175,0.018 c -0.23591,-1.3068 -0.16603,-1.25742 -2.8468,-2.01214 -0.41994,-0.11818 -1.02124,-0.36851 -1.3362,-0.55619 -0.87505,-0.52141 -1.27309,-0.45741 -1.13345,0.18227 0.33613,1.5397 0.98885,2.0383 3.59503,2.74611 1.81354,0.49254 1.87307,0.4801 1.72142,-0.36005 z m 8.70172,-0.0477 c 0,-0.38176 -0.0954,-0.57267 -0.28633,-0.57267 -0.29969,0 -0.36676,0.33184 -0.17045,0.84338 0.19131,0.49855 0.45678,0.34121 0.45678,-0.27071 z m 5.53567,-0.5614 c 0,-0.6976 -0.24736,-1.16453 -0.43741,-0.82563 -0.13874,0.24734 0.0867,1.57791 0.26742,1.57791 0.0935,0 0.16999,-0.33852 0.16999,-0.75228 z m 2.59717,-1.26814 c -0.13953,-0.36363 -0.68832,-0.34542 -0.68832,0.0229 0,0.1612 0.15037,0.52395 0.33405,0.80613 l 0.33406,0.5131 0.062,-0.53594 c 0.0341,-0.29475 0.0157,-0.65751 -0.0418,-0.80612 z m 1.94934,0.0162 c -0.23472,-0.51519 -0.65429,-0.67405 -0.46291,-0.17529 0.0638,0.16607 0.11583,0.38081 0.11583,0.4772 0,0.0964 0.12698,0.17527 0.28223,0.17527 0.23177,0 0.24336,-0.0852 0.0648,-0.47718 z m -7.26676,-0.17789 c 2.43305,-0.43487 4.0177,-0.8713 5.58164,-1.53728 1.19681,-0.50966 1.44315,-0.69064 1.49183,-1.09618 l 0.0582,-0.48572 -1.46844,0.0536 c -1.07085,0.0393 -1.5753,0.14518 -1.86307,0.39166 -0.79406,0.67988 -1.2139,0.79149 -2.36158,0.6278 -0.98939,-0.1411 -1.21048,-0.10484 -2.12147,0.34761 -0.97079,0.4822 -1.07247,0.4949 -2.23928,0.2799 -1.04277,-0.19212 -1.32801,-0.18027 -1.94175,0.0807 -1.11554,0.47428 -1.38769,0.48357 -2.30326,0.0786 -0.70333,-0.31112 -0.98037,-0.34309 -1.57824,-0.18209 -0.51334,0.13827 -0.96595,0.13105 -1.54939,-0.0244 -0.45331,-0.12086 -1.33958,-0.23876 -1.96952,-0.26218 -1.28436,-0.0478 -1.80335,-0.22489 -2.75718,-0.94114 -0.36161,-0.27151 -0.877,-0.49638 -1.14533,-0.49973 -0.2683,-0.003 -0.65457,-0.13216 -0.85837,-0.28634 -0.47544,-0.35961 -0.67932,-0.35494 -0.67932,0.0157 0,0.74551 0.59982,1.4109 1.76396,1.95678 1.8133,0.85029 2.01779,0.91621 3.86713,1.24647 3.9798,0.71079 8.88148,0.80668 12.07333,0.23619 z m -5.11291,-2.04352 c 0.59471,-0.20732 0.61805,-0.25237 0.51774,-1.00019 -0.1378,-1.02735 -0.70241,-1.49309 -1.71753,-1.41676 -0.98151,0.0737 -1.56894,0.77513 -1.37787,1.64503 0.19147,0.87178 1.32095,1.21003 2.57766,0.77192 z m -3.46187,-0.8081 c 0.103,-0.90056 -0.11615,-1.40433 -0.69894,-1.60751 -1.04679,-0.36492 -2.13153,0.21229 -2.13153,1.13424 0,0.60611 0.94073,1.14032 1.89827,1.07792 0.79987,-0.0522 0.87458,-0.10061 0.9322,-0.60465 z m 7.48988,0.44583 c 0.27993,-0.14973 0.36923,-0.40257 0.36923,-1.04498 0,-0.74528 -0.0678,-0.88243 -0.56319,-1.13859 -0.76962,-0.39798 -1.39081,-0.36537 -1.98803,0.10438 -0.65869,0.51815 -0.6995,1.54478 -0.0786,1.97962 0.48376,0.33885 1.71246,0.39294 2.26068,0.0996 z m -11.40329,-0.1364 c 0.0465,-0.0787 0.14518,-0.59059 0.21898,-1.13744 0.13059,-0.96846 0.12054,-0.99769 -0.38675,-1.12501 -1.08524,-0.27238 -2.2211,0.67079 -1.78628,1.48325 0.32931,0.61535 1.72193,1.17068 1.95405,0.7792 z m 15.71566,-0.72847 c 0.39209,-0.39209 0.46632,-0.60754 0.37197,-1.07939 -0.15367,-0.76813 -0.40483,-1.05246 -1.05629,-1.19555 -0.75075,-0.1649 -2.09888,0.41087 -2.31928,0.99051 -0.25405,0.66817 -0.22776,0.78549 0.29252,1.30575 0.6728,0.67281 2.02762,0.66216 2.71108,-0.0213 z m 4.00797,-1.08955 c 0.22614,-0.23368 0.46866,-0.70165 0.53894,-1.03993 0.10452,-0.50294 0.0399,-0.70302 -0.35478,-1.09759 -0.58535,-0.58535 -1.32155,-0.62024 -2.17013,-0.10278 -0.54592,0.33285 -0.62037,0.47729 -0.62037,1.20356 0,0.83957 0.2485,1.3396 0.76354,1.53643 0.49763,0.19014 1.41633,-0.0589 1.8428,-0.49962 z M 156.14,221.77021 c 0.55027,-0.93269 0.50683,-1.18537 -0.26749,-1.5546 -0.62394,-0.29755 -0.71226,-0.29755 -1.33618,0 -0.55719,0.26567 -0.66809,0.41961 -0.66809,0.92702 0,0.80549 0.47995,1.3066 1.25146,1.3066 0.50775,0 0.69202,-0.12258 1.0203,-0.67902 z m 8.65699,-0.59386 c 0.49901,-0.0551 1.17195,-0.008 1.49544,0.10483 0.48365,0.16861 0.71956,0.13797 1.32799,-0.17242 0.8096,-0.41301 1.60972,-0.47851 2.36024,-0.19316 0.38529,0.14644 0.67427,0.086 1.40861,-0.29502 0.93647,-0.48586 2.08208,-0.64295 2.84616,-0.39028 0.30798,0.10184 0.53394,0.0218 0.84871,-0.30048 0.87069,-0.89156 1.36488,-1.10479 2.5634,-1.1061 1.14629,-9.9e-4 1.1636,-0.009 1.52943,-0.71706 0.25447,-0.4923 0.65242,-0.85628 1.27435,-1.16557 0.61529,-0.306 0.90433,-0.56863 0.90433,-0.82175 0,-0.20457 0.17976,-0.76658 0.39948,-1.24889 0.32062,-0.70378 0.35829,-0.96725 0.19088,-1.3347 -0.11473,-0.25177 -0.20859,-0.66675 -0.20859,-0.92214 0,-0.35112 -0.19,-0.56131 -0.77923,-0.86189 -0.42859,-0.21865 -0.9225,-0.64935 -1.0976,-0.95711 -0.28256,-0.49662 -0.42145,-0.55968 -1.23539,-0.56076 -0.75194,-10e-4 -1.02596,-0.10299 -1.52192,-0.56648 -0.56322,-0.52637 -0.67868,-0.55757 -1.6776,-0.45316 -0.82766,0.0864 -1.18574,0.0383 -1.56718,-0.21182 -0.38054,-0.24933 -0.58241,-0.27685 -0.87644,-0.11944 -0.5981,0.32009 -1.66703,0.24077 -2.41469,-0.17916 -0.52468,-0.29469 -0.76939,-0.33739 -1.05568,-0.18418 -0.44254,0.23684 -0.44938,0.46434 -0.0886,2.95385 0.36951,2.55029 0.36105,3.2178 -0.0454,3.57466 -0.85044,0.74679 -1.9326,0.55943 -2.32691,-0.40286 -0.19318,-0.47144 -0.47412,-2.17868 -0.71041,-4.3171 -0.0589,-0.53445 -0.2385,-1.05942 -0.40781,-1.19304 -0.4545,-0.35866 -1.45232,-0.28721 -1.99945,0.14314 -0.32279,0.2539 -0.77438,0.38177 -1.34828,0.38177 -0.47466,0 -0.97827,0.11519 -1.11915,0.25617 -0.44687,0.44684 -1.06228,0.69818 -1.71513,0.70045 -0.54864,0.002 -0.68131,0.1033 -0.99631,0.76071 -0.25898,0.54062 -0.60085,0.87346 -1.19003,1.15868 -0.67071,0.3247 -0.87001,0.54488 -1.05647,1.16731 -0.12635,0.42191 -0.42841,0.89722 -0.67111,1.05624 -0.33362,0.2186 -0.44125,0.46699 -0.44125,1.01829 0,0.40104 -0.078,0.93437 -0.1734,1.18522 -0.13168,0.34617 -0.0577,0.70559 0.30671,1.49177 0.38336,0.82704 0.68372,1.16073 1.49056,1.65611 0.55575,0.3412 1.21228,0.62342 1.45898,0.62712 0.24668,0.003 0.65253,0.11992 0.90186,0.25811 0.33005,0.18297 0.674,0.20429 1.26449,0.0783 0.6123,-0.13059 0.96906,-0.10216 1.4555,0.11567 0.35955,0.1611 0.89749,0.24402 1.21703,0.18756 0.31495,-0.0555 0.98091,-0.14628 1.47995,-0.20141 z m -10.92875,-1.30408 c 0.24656,-0.26248 0.56218,-0.47721 0.70135,-0.47721 0.3343,0 0.31304,-0.76368 -0.0341,-1.22223 -0.53742,-0.71008 -2.38532,-0.19609 -2.38532,0.66345 0,0.6143 0.55013,1.51321 0.92607,1.51321 0.18896,0 0.54532,-0.21476 0.79192,-0.47722 z m 27.04944,-0.95444 c 1.65711,-1.09183 1.76241,-1.43162 0.44368,-1.43162 -0.58674,0 -0.83516,0.11866 -1.22948,0.5873 -0.54201,0.64413 -0.6529,1.32155 -0.21634,1.32155 0.15287,0 0.60379,-0.21473 1.00214,-0.47723 z m 3.82618,-1.66925 c 0.13137,-0.10499 0.23862,-0.60339 0.23862,-1.10808 0,-0.76352 -0.0842,-0.98349 -0.50298,-1.31282 -0.66092,-0.51991 -1.24103,-0.50028 -1.7672,0.0598 -0.6623,0.70499 -0.50367,1.78609 0.34576,2.35664 0.64633,0.43411 1.14713,0.43544 1.6858,0.005 z m -31.02885,-0.26502 c 0.58502,-0.0967 0.72672,-0.21201 0.82813,-0.67377 0.17783,-0.80963 -0.32399,-1.49597 -1.09378,-1.49597 -0.8331,0 -1.29911,0.47852 -1.29911,1.33397 0,1.0118 0.11819,1.07493 1.56476,0.83577 z m 15.04224,-3.25854 c 0,-1.26776 -0.35201,-5.0448 -0.54786,-5.8785 -0.10453,-0.44484 -0.23946,-0.57265 -0.60459,-0.57265 -0.4348,0 -0.4745,0.0781 -0.5291,1.04049 -0.0686,1.20899 0.46546,5.62873 0.7427,6.14681 0.10393,0.19395 0.35752,0.35265 0.56379,0.35265 0.32899,0 0.37506,-0.13371 0.37506,-1.0888 z m -13.21879,0.18288 c 0.53501,-0.70036 0.14031,-1.95735 -0.61464,-1.95735 -1.20237,0 -2.10076,1.02597 -1.64467,1.8782 0.34955,0.65313 1.78253,0.70334 2.25931,0.079 z m 29.82706,-0.14549 c 0.37427,-0.45097 0.12649,-2.01029 -0.38528,-2.42471 -0.53686,-0.43472 -0.90069,-0.42976 -1.64223,0.0225 -0.651,0.39696 -0.90533,1.14952 -0.63169,1.86925 0.12698,0.33384 0.31687,0.43984 0.79207,0.44207 0.34381,0.002 0.75395,0.0861 0.91143,0.18797 0.40602,0.26239 0.68056,0.23453 0.9557,-0.097 z m -27.64691,-2.31866 c 0.45812,-0.41459 0.44372,-1.11652 -0.0327,-1.59293 -0.98669,-0.98666 -2.38837,0.27444 -1.71126,1.53963 0.24877,0.46482 1.25522,0.49559 1.74395,0.0531 z m 24.80934,-0.68719 c 0.69142,-0.58766 0.8332,-1.49494 0.33301,-2.13081 -1.07494,-1.36658 -3.06765,0.2861 -2.24026,1.85799 0.43766,0.83151 1.13294,0.93097 1.90725,0.27282 z m 3.03593,-0.73122 c 0.2845,-0.53159 0.12132,-0.64882 -0.6109,-0.43883 -0.74461,0.21356 -0.91265,0.58671 -0.31557,0.70081 0.24228,0.0462 0.50191,0.096 0.57695,0.11017 0.0749,0.0142 0.23233,-0.15319 0.34952,-0.37214 z m -24.82381,-0.65174 c 0.21328,-0.3985 0.21328,-0.55592 0,-0.95441 -0.25145,-0.46986 -0.48631,-0.56083 -1.24075,-0.48058 -0.60194,0.0641 -0.85899,0.38144 -0.85899,1.06069 0,0.69785 0.16176,0.81443 1.1608,0.83644 0.54214,0.0127 0.7364,-0.0836 0.93894,-0.46214 z m 18.45877,-5.7e-4 c 0.56988,-0.39915 0.93446,-1.54108 0.61496,-1.92607 -0.43916,-0.52914 -0.854,-0.64083 -1.56722,-0.42195 -1.2603,0.3868 -1.4225,1.85264 -0.26091,2.35801 0.76028,0.33079 0.72624,0.33106 1.21317,-0.009 z m -15.2234,-0.94352 0.43864,-0.46691 -0.36692,-0.63069 c -0.26562,-0.45654 -0.52467,-0.64637 -0.93829,-0.68753 -0.69836,-0.0695 -1.41436,0.49448 -1.41436,1.11405 0,1.11166 1.46273,1.54198 2.28093,0.67107 z m 12.30479,-0.50218 c 0.56625,-0.67293 0.59525,-0.88542 0.19351,-1.41698 -0.21529,-0.28483 -0.49821,-0.37728 -1.11426,-0.36406 -1.26985,0.0272 -1.44834,0.1524 -1.44834,1.01532 0,1.38101 1.45553,1.85145 2.36909,0.76571 z m -10.19537,-0.57113 c 0,-0.17704 0.12886,-0.42885 0.28633,-0.55954 0.41877,-0.34757 0.34963,-0.86644 -0.14315,-1.07439 -0.647,-0.27305 -1.28492,-0.0967 -1.5205,0.42043 -0.27351,0.60026 0.0981,1.93084 0.56976,2.04009 0.37823,0.0876 0.80759,-0.35186 0.80759,-0.82659 z m 6.76041,0.53804 c 0.336,-1.66418 0.30684,-1.86395 -0.32855,-2.25138 -0.69985,-0.42673 -1.3378,-0.48006 -1.6105,-0.13466 -0.10361,0.13122 -0.2367,0.73177 -0.29575,1.33451 -0.12508,1.27795 0.0457,1.46593 1.34048,1.47524 0.68686,0.005 0.82057,-0.0583 0.89432,-0.42369 z m -3.05178,-0.44312 c 0.38329,-0.38329 0.38461,-1.21218 0.003,-1.75729 -0.22939,-0.3275 -0.48591,-0.42425 -1.1249,-0.42425 -1.11086,0 -1.25404,0.40098 -0.43829,1.22768 0.34078,0.34534 0.73036,0.76873 0.86572,0.94087 0.30237,0.38447 0.32279,0.38484 0.69466,0.0126 z m 6.40829,-16.24575 c 0,-0.0713 -0.0994,-0.40413 -0.22061,-0.73966 -0.19374,-0.53576 -0.17093,-0.6633 0.18737,-1.0479 0.40438,-0.43405 0.40464,-0.44019 0.0313,-0.70179 -0.68095,-0.47698 -0.82212,-0.96551 -0.55958,-1.93676 0.13153,-0.48647 0.32391,-0.99396 0.42757,-1.12771 0.31015,-0.40029 -0.0111,-0.49919 -0.52505,-0.16201 -0.62014,0.40634 -0.77253,0.99455 -0.77253,2.98215 0,2.3722 0.15648,2.74495 1.19304,2.84114 0.13121,0.0127 0.23862,-0.0362 0.23862,-0.10751 z m 3.02031,-1.46609 c 0.75452,-1.5108 0.3691,-2.61919 -0.70996,-2.0417 -0.20702,0.11081 -0.58763,0.20146 -0.84577,0.20146 -0.25814,0 -0.52061,0.13356 -0.58331,0.29701 -0.23744,0.61877 0.85032,2.37539 1.47094,2.37539 0.1389,0 0.43952,-0.37449 0.6681,-0.83216 z m -5.44493,-1.00636 c 0.24426,-0.24424 -0.27316,-0.83388 -0.73172,-0.83388 -0.50192,0 -0.618,0.34877 -0.24143,0.72536 0.24606,0.24607 0.77646,0.30523 0.97315,0.10846 z"
       id="path401" />
  </g>
</svg>
